<?xml version="1.0" encoding="UTF-8"?>
<svg xmlns="http://www.w3.org/2000/svg" xmlns:xlink="http://www.w3.org/1999/xlink" width="54px" height="50px" viewBox="0 0 54 50" version="1.1">
<g id="surface1">
<path style=" stroke:none;fill-rule:nonzero;fill:rgb(0%,0%,0%);fill-opacity:1;" d="M 0.527344 25.089844 L 0.527344 49.472656 L 53.261719 49.472656 L 53.261719 0.703125 L 0.527344 0.703125 Z M 52.910156 25.089844 L 52.910156 49.121094 L 0.878906 49.121094 L 0.878906 1.054688 L 52.910156 1.054688 Z M 52.910156 25.089844 "/>
<path style=" stroke:none;fill-rule:nonzero;fill:rgb(0%,0%,0%);fill-opacity:1;" d="M 1.582031 25.089844 L 1.582031 48.414062 L 52.207031 48.414062 L 52.207031 1.761719 L 1.582031 1.761719 Z M 51.855469 25.089844 L 51.855469 48.0625 L 1.933594 48.0625 L 1.933594 2.113281 L 51.855469 2.113281 Z M 51.855469 25.089844 "/>
<path style=" stroke:none;fill-rule:nonzero;fill:rgb(0%,0%,0%);fill-opacity:1;" d="M 26.015625 9.683594 C 26.015625 9.769531 26.140625 9.859375 26.28125 9.859375 C 26.421875 9.859375 26.542969 9.769531 26.542969 9.683594 C 26.542969 9.578125 26.421875 9.507812 26.28125 9.507812 C 26.140625 9.507812 26.015625 9.578125 26.015625 9.683594 Z M 26.015625 9.683594 "/>
<path style=" stroke:none;fill-rule:nonzero;fill:rgb(0%,0%,0%);fill-opacity:1;" d="M 27.070312 9.683594 C 27.070312 9.769531 27.195312 9.859375 27.335938 9.859375 C 27.476562 9.859375 27.597656 9.769531 27.597656 9.683594 C 27.597656 9.578125 27.476562 9.507812 27.335938 9.507812 C 27.195312 9.507812 27.070312 9.578125 27.070312 9.683594 Z M 27.070312 9.683594 "/>
<path style=" stroke:none;fill-rule:nonzero;fill:rgb(0%,0%,0%);fill-opacity:1;" d="M 24.960938 9.859375 C 24.960938 9.945312 25.03125 10.035156 25.121094 10.035156 C 25.226562 10.035156 25.347656 9.945312 25.402344 9.859375 C 25.453125 9.753906 25.382812 9.683594 25.242188 9.683594 C 25.085938 9.683594 24.960938 9.753906 24.960938 9.859375 Z M 24.960938 9.859375 "/>
<path style=" stroke:none;fill-rule:nonzero;fill:rgb(0%,0%,0%);fill-opacity:1;" d="M 28.390625 9.859375 C 28.441406 9.945312 28.566406 10.035156 28.671875 10.035156 C 28.757812 10.035156 28.828125 9.945312 28.828125 9.859375 C 28.828125 9.753906 28.707031 9.683594 28.546875 9.683594 C 28.40625 9.683594 28.335938 9.753906 28.390625 9.859375 Z M 28.390625 9.859375 "/>
<path style=" stroke:none;fill-rule:nonzero;fill:rgb(0%,0%,0%);fill-opacity:1;" d="M 23.925781 10.019531 C 23.785156 10.125 23.765625 10.210938 23.871094 10.28125 C 23.976562 10.335938 24.117188 10.300781 24.171875 10.195312 C 24.328125 9.945312 24.207031 9.839844 23.925781 10.019531 Z M 23.925781 10.019531 "/>
<path style=" stroke:none;fill-rule:nonzero;fill:rgb(0%,0%,0%);fill-opacity:1;" d="M 29.355469 10.035156 C 29.355469 10.125 29.480469 10.210938 29.636719 10.210938 C 29.777344 10.210938 29.847656 10.125 29.796875 10.035156 C 29.742188 9.929688 29.621094 9.859375 29.515625 9.859375 C 29.425781 9.859375 29.355469 9.929688 29.355469 10.035156 Z M 29.355469 10.035156 "/>
<path style=" stroke:none;fill-rule:nonzero;fill:rgb(0%,0%,0%);fill-opacity:1;" d="M 30.445312 10.421875 C 30.535156 10.6875 30.9375 10.828125 30.9375 10.597656 C 30.9375 10.511719 30.816406 10.371094 30.65625 10.316406 C 30.480469 10.246094 30.410156 10.300781 30.445312 10.421875 Z M 30.445312 10.421875 "/>
<path style=" stroke:none;fill-rule:nonzero;fill:rgb(0%,0%,0%);fill-opacity:1;" d="M 23.027344 10.582031 C 23.027344 10.667969 23.117188 10.703125 23.203125 10.652344 C 23.308594 10.597656 23.378906 10.511719 23.378906 10.457031 C 23.378906 10.421875 23.308594 10.386719 23.203125 10.386719 C 23.117188 10.386719 23.027344 10.476562 23.027344 10.582031 Z M 23.027344 10.582031 "/>
<path style=" stroke:none;fill-rule:nonzero;fill:rgb(0%,0%,0%);fill-opacity:1;" d="M 21.816406 11.160156 C 21.429688 11.566406 21.394531 11.566406 20.515625 11.339844 C 19.335938 11.039062 19.054688 11.285156 20.039062 11.796875 C 20.636719 12.09375 20.726562 12.21875 20.566406 12.429688 C 20.445312 12.570312 20.199219 12.675781 20.023438 12.675781 C 19.546875 12.675781 19.53125 12.886719 19.988281 13.363281 C 20.339844 13.730469 20.390625 13.75 20.390625 13.46875 C 20.390625 13.292969 20.53125 12.992188 20.691406 12.816406 C 20.972656 12.5 21.007812 12.5 21.375 13.238281 C 21.691406 13.855469 21.796875 13.945312 21.886719 13.679688 C 21.957031 13.519531 21.921875 13.046875 21.832031 12.625 C 21.65625 11.953125 21.675781 11.847656 22.0625 11.445312 C 22.308594 11.179688 22.5 10.933594 22.5 10.863281 C 22.5 10.617188 22.203125 10.738281 21.816406 11.160156 Z M 21.816406 11.160156 "/>
<path style=" stroke:none;fill-rule:nonzero;fill:rgb(0%,0%,0%);fill-opacity:1;" d="M 31.378906 11.089844 C 31.429688 11.179688 31.554688 11.269531 31.660156 11.269531 C 31.746094 11.269531 31.816406 11.179688 31.816406 11.089844 C 31.816406 10.984375 31.695312 10.914062 31.535156 10.914062 C 31.394531 10.914062 31.324219 10.984375 31.378906 11.089844 Z M 31.378906 11.089844 "/>
<path style=" stroke:none;fill-rule:nonzero;fill:rgb(0%,0%,0%);fill-opacity:1;" d="M 32.34375 11.601562 C 32.34375 11.691406 32.433594 11.832031 32.519531 11.882812 C 32.625 11.9375 32.695312 11.917969 32.695312 11.8125 C 32.695312 11.726562 32.625 11.585938 32.519531 11.53125 C 32.433594 11.480469 32.34375 11.496094 32.34375 11.601562 Z M 32.34375 11.601562 "/>
<path style=" stroke:none;fill-rule:nonzero;fill:rgb(0%,0%,0%);fill-opacity:1;" d="M 24.875 12.164062 C 20.285156 13.644531 18.898438 19.472656 22.324219 22.886719 C 22.765625 23.34375 23.589844 23.925781 24.171875 24.207031 C 25.101562 24.664062 25.417969 24.71875 26.894531 24.71875 C 28.371094 24.71875 28.6875 24.664062 29.621094 24.207031 C 30.199219 23.925781 31.027344 23.34375 31.464844 22.886719 C 34.910156 19.453125 33.503906 13.609375 28.847656 12.148438 C 27.476562 11.707031 26.246094 11.707031 24.875 12.164062 Z M 29.65625 12.730469 C 30.65625 13.257812 30.957031 13.554688 30.445312 13.554688 C 30.253906 13.554688 29.882812 13.730469 29.601562 13.945312 C 29.320312 14.15625 29.199219 14.207031 29.320312 14.050781 C 29.515625 13.820312 29.480469 13.75 29.074219 13.660156 C 28.425781 13.484375 28.089844 13.660156 27.652344 14.347656 C 27.28125 14.945312 27.28125 14.964844 27.597656 15.140625 C 28.074219 15.386719 28.125 15.371094 28.125 14.910156 C 28.125 14.699219 28.214844 14.402344 28.320312 14.261719 C 28.476562 14.03125 28.496094 14.03125 28.425781 14.277344 C 28.371094 14.4375 28.40625 14.648438 28.511719 14.753906 C 28.777344 15.019531 28.335938 15.546875 27.933594 15.441406 C 27.757812 15.386719 27.582031 15.476562 27.511719 15.617188 C 27.421875 15.863281 27.371094 15.84375 27.070312 15.582031 C 26.878906 15.40625 26.71875 15.300781 26.71875 15.371094 C 26.71875 15.421875 26.667969 15.617188 26.613281 15.792969 C 26.527344 16.054688 26.542969 16.054688 26.703125 15.84375 C 26.808594 15.703125 26.894531 15.652344 26.914062 15.757812 C 26.914062 15.84375 26.949219 16.109375 27 16.320312 C 27.035156 16.550781 26.984375 16.726562 26.878906 16.726562 C 26.753906 16.726562 26.71875 16.902344 26.789062 17.148438 C 26.84375 17.394531 26.808594 17.800781 26.703125 18.082031 C 26.246094 19.207031 26.703125 20.105469 27.667969 19.945312 C 28.160156 19.875 28.25 19.929688 28.53125 20.511719 C 28.6875 20.863281 28.792969 21.214844 28.742188 21.285156 C 28.707031 21.375 28.847656 21.796875 29.058594 22.253906 C 29.460938 23.082031 29.460938 23.082031 29.847656 22.765625 C 30.078125 22.589844 30.253906 22.253906 30.269531 22.007812 C 30.289062 21.761719 30.359375 21.480469 30.445312 21.355469 C 30.535156 21.25 30.550781 20.96875 30.5 20.722656 C 30.429688 20.457031 30.5 20.070312 30.65625 19.753906 C 31.007812 19.066406 31.007812 18.875 30.640625 18.910156 C 30.480469 18.910156 30.199219 18.660156 30.007812 18.34375 C 29.585938 17.640625 29.726562 17.589844 30.183594 18.308594 C 30.5 18.804688 30.535156 18.820312 30.902344 18.554688 C 31.34375 18.257812 31.414062 17.78125 31.042969 17.78125 C 30.902344 17.78125 30.746094 17.710938 30.691406 17.640625 C 30.640625 17.554688 30.886719 17.535156 31.253906 17.589844 C 31.730469 17.675781 31.992188 17.851562 32.257812 18.257812 C 32.609375 18.839844 32.996094 19.050781 32.820312 18.574219 C 32.75 18.433594 32.785156 18.273438 32.871094 18.222656 C 33.1875 18.027344 33.066406 19.507812 32.695312 20.492188 C 31.78125 22.90625 29.53125 24.472656 26.964844 24.488281 C 26 24.507812 24.609375 24.226562 24.609375 24.03125 C 24.609375 23.875 25.050781 22.957031 25.242188 22.710938 C 25.347656 22.570312 25.488281 22.148438 25.542969 21.796875 C 25.628906 21.214844 25.59375 21.125 25.171875 20.96875 C 24.910156 20.863281 24.46875 20.632812 24.171875 20.457031 C 23.574219 20.089844 23.011719 20.035156 22.816406 20.316406 C 22.535156 20.738281 22.675781 21.636719 23.132812 22.164062 C 23.414062 22.519531 23.554688 22.871094 23.519531 23.167969 C 23.46875 23.625 23.46875 23.609375 22.625 22.78125 C 21.832031 22.007812 21.289062 21.160156 21.023438 20.316406 C 20.917969 19.980469 20.972656 19.945312 21.394531 20.035156 C 21.675781 20.070312 21.992188 20.195312 22.113281 20.300781 C 22.378906 20.511719 22.394531 20.335938 22.113281 19.910156 C 21.992188 19.71875 21.78125 19.628906 21.585938 19.683594 C 21.339844 19.734375 21.269531 19.664062 21.269531 19.3125 C 21.269531 18.804688 21.726562 18.554688 22.078125 18.855469 C 22.289062 19.015625 22.308594 19.015625 22.238281 18.785156 C 22.167969 18.644531 22.203125 18.46875 22.308594 18.398438 C 22.414062 18.34375 22.5 18.132812 22.5 17.941406 C 22.5 17.765625 22.660156 17.519531 22.835938 17.394531 C 23.011719 17.289062 23.132812 17.09375 23.097656 16.988281 C 23.046875 16.867188 23.132812 16.671875 23.292969 16.550781 C 23.539062 16.355469 23.519531 16.285156 23.167969 16.039062 C 22.941406 15.878906 22.710938 15.773438 22.660156 15.792969 C 22.589844 15.808594 22.554688 15.652344 22.570312 15.421875 C 22.570312 15.195312 22.640625 15.035156 22.730469 15.089844 C 22.800781 15.125 22.851562 15.089844 22.851562 15.019531 C 22.851562 14.929688 22.695312 14.769531 22.5 14.648438 C 22.203125 14.472656 22.183594 14.367188 22.324219 14.085938 C 22.429688 13.890625 22.625 13.730469 22.746094 13.730469 C 23.011719 13.730469 23.644531 14.59375 23.484375 14.734375 C 23.34375 14.894531 23.730469 15.316406 24.011719 15.316406 C 24.152344 15.316406 24.257812 15.210938 24.257812 15.089844 C 24.257812 14.980469 24.523438 14.71875 24.839844 14.507812 C 25.296875 14.207031 25.417969 13.996094 25.453125 13.46875 C 25.472656 13.082031 25.59375 12.710938 25.71875 12.625 C 25.859375 12.519531 25.789062 12.5 25.542969 12.554688 C 25.121094 12.640625 24.980469 12.429688 25.367188 12.253906 C 25.472656 12.199219 26.296875 12.183594 27.160156 12.199219 C 28.460938 12.253906 28.898438 12.339844 29.65625 12.730469 Z M 22.203125 15.140625 C 22.253906 15.335938 22.21875 15.492188 22.113281 15.492188 C 22.027344 15.492188 21.972656 15.632812 21.992188 15.792969 C 22.0625 16.496094 21.992188 16.566406 21.585938 16.355469 C 21.359375 16.25 21.148438 16.125 21.113281 16.089844 C 21.007812 16.003906 21.851562 14.628906 21.972656 14.699219 C 22.042969 14.753906 22.148438 14.945312 22.203125 15.140625 Z M 30.746094 16.585938 C 30.761719 16.671875 30.691406 16.726562 30.605469 16.726562 C 30.410156 16.726562 30.234375 16.074219 30.375 15.933594 C 30.480469 15.84375 30.726562 16.269531 30.746094 16.585938 Z M 29.796875 16.375 C 29.867188 16.480469 29.707031 16.550781 29.445312 16.550781 C 29.179688 16.550781 29.023438 16.480469 29.09375 16.375 C 29.144531 16.269531 29.304688 16.195312 29.445312 16.195312 C 29.585938 16.195312 29.742188 16.269531 29.796875 16.375 Z M 28.792969 16.917969 C 28.847656 16.742188 29.707031 17.09375 29.707031 17.289062 C 29.707031 17.375 29.601562 17.429688 29.496094 17.445312 C 29.375 17.445312 29.003906 17.480469 28.707031 17.535156 C 28.355469 17.570312 28.125 17.519531 28.125 17.410156 C 28.125 17.289062 27.933594 17.253906 27.597656 17.324219 C 27.105469 17.410156 27.070312 17.394531 27.246094 17.09375 C 27.476562 16.636719 27.773438 16.566406 28.300781 16.847656 C 28.546875 16.972656 28.757812 17.007812 28.792969 16.917969 Z M 28.792969 16.917969 "/>
<path style=" stroke:none;fill-rule:nonzero;fill:rgb(0%,0%,0%);fill-opacity:1;" d="M 33.136719 12.5 C 33.1875 12.589844 33.328125 12.675781 33.417969 12.675781 C 33.523438 12.675781 33.539062 12.589844 33.488281 12.5 C 33.433594 12.394531 33.292969 12.324219 33.207031 12.324219 C 33.101562 12.324219 33.082031 12.394531 33.136719 12.5 Z M 33.136719 12.5 "/>
<path style=" stroke:none;fill-rule:nonzero;fill:rgb(0%,0%,0%);fill-opacity:1;" d="M 33.839844 13.378906 C 33.890625 13.46875 34.03125 13.554688 34.121094 13.554688 C 34.226562 13.554688 34.242188 13.46875 34.191406 13.378906 C 34.136719 13.273438 33.996094 13.203125 33.910156 13.203125 C 33.804688 13.203125 33.785156 13.273438 33.839844 13.378906 Z M 33.839844 13.378906 "/>
<path style=" stroke:none;fill-rule:nonzero;fill:rgb(0%,0%,0%);fill-opacity:1;" d="M 19.335938 13.925781 C 19.335938 14.015625 19.425781 14.050781 19.511719 13.996094 C 19.617188 13.945312 19.6875 13.855469 19.6875 13.804688 C 19.6875 13.769531 19.617188 13.730469 19.511719 13.730469 C 19.425781 13.730469 19.335938 13.820312 19.335938 13.925781 Z M 19.335938 13.925781 "/>
<path style=" stroke:none;fill-rule:nonzero;fill:rgb(0%,0%,0%);fill-opacity:1;" d="M 34.453125 14.332031 C 34.453125 14.488281 34.542969 14.613281 34.628906 14.613281 C 34.734375 14.613281 34.804688 14.542969 34.804688 14.453125 C 34.804688 14.347656 34.734375 14.226562 34.628906 14.171875 C 34.542969 14.121094 34.453125 14.191406 34.453125 14.332031 Z M 34.453125 14.332031 "/>
<path style=" stroke:none;fill-rule:nonzero;fill:rgb(0%,0%,0%);fill-opacity:1;" d="M 18.914062 14.59375 C 18.84375 14.71875 18.828125 14.859375 18.878906 14.910156 C 19.039062 15.070312 19.214844 14.839844 19.125 14.59375 C 19.054688 14.402344 19.019531 14.402344 18.914062 14.59375 Z M 18.914062 14.59375 "/>
<path style=" stroke:none;fill-rule:nonzero;fill:rgb(0%,0%,0%);fill-opacity:1;" d="M 34.804688 15.300781 C 34.804688 15.40625 34.894531 15.527344 34.980469 15.582031 C 35.085938 15.632812 35.15625 15.5625 35.15625 15.421875 C 35.15625 15.265625 35.085938 15.140625 34.980469 15.140625 C 34.894531 15.140625 34.804688 15.210938 34.804688 15.300781 Z M 34.804688 15.300781 "/>
<path style=" stroke:none;fill-rule:nonzero;fill:rgb(0%,0%,0%);fill-opacity:1;" d="M 18.457031 15.757812 C 18.457031 15.898438 18.546875 16.019531 18.632812 16.019531 C 18.738281 16.019531 18.808594 15.898438 18.808594 15.757812 C 18.808594 15.617188 18.738281 15.492188 18.632812 15.492188 C 18.546875 15.492188 18.457031 15.617188 18.457031 15.757812 Z M 18.457031 15.757812 "/>
<path style=" stroke:none;fill-rule:nonzero;fill:rgb(0%,0%,0%);fill-opacity:1;" d="M 35.15625 16.460938 C 35.15625 16.601562 35.246094 16.726562 35.332031 16.726562 C 35.4375 16.726562 35.507812 16.601562 35.507812 16.460938 C 35.507812 16.320312 35.4375 16.195312 35.332031 16.195312 C 35.246094 16.195312 35.15625 16.320312 35.15625 16.460938 Z M 35.15625 16.460938 "/>
<path style=" stroke:none;fill-rule:nonzero;fill:rgb(0%,0%,0%);fill-opacity:1;" d="M 18.195312 16.882812 C 18.140625 16.972656 18.175781 17.09375 18.28125 17.164062 C 18.371094 17.21875 18.457031 17.148438 18.457031 17.007812 C 18.457031 16.691406 18.351562 16.636719 18.195312 16.882812 Z M 18.195312 16.882812 "/>
<path style=" stroke:none;fill-rule:nonzero;fill:rgb(0%,0%,0%);fill-opacity:1;" d="M 35.332031 17.5 C 35.332031 17.640625 35.421875 17.816406 35.507812 17.871094 C 35.613281 17.921875 35.683594 17.816406 35.683594 17.625 C 35.683594 17.410156 35.613281 17.253906 35.507812 17.253906 C 35.421875 17.253906 35.332031 17.359375 35.332031 17.5 Z M 35.332031 17.5 "/>
<path style=" stroke:none;fill-rule:nonzero;fill:rgb(0%,0%,0%);fill-opacity:1;" d="M 18.105469 18.046875 C 18.105469 18.1875 18.195312 18.308594 18.28125 18.308594 C 18.386719 18.308594 18.457031 18.1875 18.457031 18.046875 C 18.457031 17.90625 18.386719 17.78125 18.28125 17.78125 C 18.195312 17.78125 18.105469 17.90625 18.105469 18.046875 Z M 18.105469 18.046875 "/>
<path style=" stroke:none;fill-rule:nonzero;fill:rgb(0%,0%,0%);fill-opacity:1;" d="M 35.332031 18.75 C 35.332031 18.890625 35.421875 19.015625 35.507812 19.015625 C 35.613281 19.015625 35.683594 18.890625 35.683594 18.75 C 35.683594 18.609375 35.613281 18.484375 35.507812 18.484375 C 35.421875 18.484375 35.332031 18.609375 35.332031 18.75 Z M 35.332031 18.75 "/>
<path style=" stroke:none;fill-rule:nonzero;fill:rgb(0%,0%,0%);fill-opacity:1;" d="M 18.105469 19.085938 C 18.105469 19.226562 18.195312 19.402344 18.28125 19.453125 C 18.386719 19.507812 18.457031 19.402344 18.457031 19.207031 C 18.457031 18.996094 18.386719 18.839844 18.28125 18.839844 C 18.195312 18.839844 18.105469 18.945312 18.105469 19.085938 Z M 18.105469 19.085938 "/>
<path style=" stroke:none;fill-rule:nonzero;fill:rgb(0%,0%,0%);fill-opacity:1;" d="M 35.261719 19.804688 C 35.210938 19.945312 35.246094 20.070312 35.332031 20.070312 C 35.4375 20.070312 35.507812 19.945312 35.507812 19.804688 C 35.507812 19.664062 35.472656 19.542969 35.4375 19.542969 C 35.402344 19.542969 35.332031 19.664062 35.261719 19.804688 Z M 35.261719 19.804688 "/>
<path style=" stroke:none;fill-rule:nonzero;fill:rgb(0%,0%,0%);fill-opacity:1;" d="M 18.28125 20.230469 C 18.28125 20.335938 18.371094 20.457031 18.457031 20.511719 C 18.5625 20.5625 18.632812 20.492188 18.632812 20.351562 C 18.632812 20.195312 18.5625 20.070312 18.457031 20.070312 C 18.371094 20.070312 18.28125 20.140625 18.28125 20.230469 Z M 18.28125 20.230469 "/>
<path style=" stroke:none;fill-rule:nonzero;fill:rgb(0%,0%,0%);fill-opacity:1;" d="M 35.085938 20.757812 C 35.015625 20.878906 35 21.019531 35.050781 21.074219 C 35.210938 21.230469 35.386719 21.003906 35.296875 20.757812 C 35.226562 20.5625 35.191406 20.5625 35.085938 20.757812 Z M 35.085938 20.757812 "/>
<path style=" stroke:none;fill-rule:nonzero;fill:rgb(0%,0%,0%);fill-opacity:1;" d="M 18.632812 21.285156 C 18.632812 21.390625 18.722656 21.515625 18.808594 21.566406 C 18.914062 21.621094 18.984375 21.550781 18.984375 21.410156 C 18.984375 21.25 18.914062 21.125 18.808594 21.125 C 18.722656 21.125 18.632812 21.195312 18.632812 21.285156 Z M 18.632812 21.285156 "/>
<path style=" stroke:none;fill-rule:nonzero;fill:rgb(0%,0%,0%);fill-opacity:1;" d="M 34.558594 21.917969 C 34.507812 22.058594 34.542969 22.183594 34.628906 22.183594 C 34.859375 22.183594 35.015625 21.867188 34.824219 21.761719 C 34.734375 21.707031 34.628906 21.777344 34.558594 21.917969 Z M 34.558594 21.917969 "/>
<path style=" stroke:none;fill-rule:nonzero;fill:rgb(0%,0%,0%);fill-opacity:1;" d="M 19.089844 22.429688 C 19.144531 22.589844 19.285156 22.710938 19.371094 22.710938 C 19.601562 22.710938 19.460938 22.304688 19.195312 22.21875 C 19.074219 22.183594 19.019531 22.253906 19.089844 22.429688 Z M 19.089844 22.429688 "/>
<path style=" stroke:none;fill-rule:nonzero;fill:rgb(0%,0%,0%);fill-opacity:1;" d="M 34.050781 22.835938 C 33.875 22.992188 33.890625 23.238281 34.085938 23.238281 C 34.171875 23.238281 34.277344 23.117188 34.347656 22.976562 C 34.4375 22.710938 34.261719 22.625 34.050781 22.835938 Z M 34.050781 22.835938 "/>
<path style=" stroke:none;fill-rule:nonzero;fill:rgb(0%,0%,0%);fill-opacity:1;" d="M 19.6875 23.222656 C 19.6875 23.308594 19.777344 23.449219 19.863281 23.503906 C 19.96875 23.554688 20.039062 23.539062 20.039062 23.433594 C 20.039062 23.34375 19.96875 23.203125 19.863281 23.152344 C 19.777344 23.097656 19.6875 23.117188 19.6875 23.222656 Z M 19.6875 23.222656 "/>
<path style=" stroke:none;fill-rule:nonzero;fill:rgb(0%,0%,0%);fill-opacity:1;" d="M 33.398438 23.855469 C 33.257812 24.015625 33.257812 24.121094 33.363281 24.121094 C 33.574219 24.121094 33.820312 23.785156 33.699219 23.660156 C 33.664062 23.625 33.523438 23.695312 33.398438 23.855469 Z M 33.398438 23.855469 "/>
<path style=" stroke:none;fill-rule:nonzero;fill:rgb(0%,0%,0%);fill-opacity:1;" d="M 20.390625 24.101562 C 20.390625 24.191406 20.480469 24.332031 20.566406 24.382812 C 20.671875 24.4375 20.742188 24.417969 20.742188 24.3125 C 20.742188 24.226562 20.671875 24.085938 20.566406 24.03125 C 20.480469 23.980469 20.390625 23.996094 20.390625 24.101562 Z M 20.390625 24.101562 "/>
<path style=" stroke:none;fill-rule:nonzero;fill:rgb(0%,0%,0%);fill-opacity:1;" d="M 32.609375 24.664062 C 32.414062 24.964844 32.625 25.035156 32.871094 24.734375 C 33.011719 24.578125 33.011719 24.472656 32.90625 24.472656 C 32.800781 24.472656 32.660156 24.558594 32.609375 24.664062 Z M 32.609375 24.664062 "/>
<path style=" stroke:none;fill-rule:nonzero;fill:rgb(0%,0%,0%);fill-opacity:1;" d="M 21.183594 25 C 21.234375 25.089844 21.375 25.175781 21.464844 25.175781 C 21.570312 25.175781 21.585938 25.089844 21.535156 25 C 21.480469 24.894531 21.339844 24.824219 21.253906 24.824219 C 21.148438 24.824219 21.128906 24.894531 21.183594 25 Z M 21.183594 25 "/>
<path style=" stroke:none;fill-rule:nonzero;fill:rgb(0%,0%,0%);fill-opacity:1;" d="M 31.730469 25.371094 C 31.535156 25.667969 31.746094 25.738281 31.992188 25.441406 C 32.132812 25.28125 32.132812 25.175781 32.027344 25.175781 C 31.921875 25.175781 31.78125 25.265625 31.730469 25.371094 Z M 31.730469 25.371094 "/>
<path style=" stroke:none;fill-rule:nonzero;fill:rgb(0%,0%,0%);fill-opacity:1;" d="M 21.972656 25.597656 C 21.972656 25.632812 22.097656 25.703125 22.238281 25.773438 C 22.378906 25.828125 22.5 25.792969 22.5 25.703125 C 22.5 25.597656 22.378906 25.527344 22.238281 25.527344 C 22.097656 25.527344 21.972656 25.5625 21.972656 25.597656 Z M 21.972656 25.597656 "/>
<path style=" stroke:none;fill-rule:nonzero;fill:rgb(0%,0%,0%);fill-opacity:1;" d="M 30.761719 25.878906 C 30.621094 25.96875 30.570312 26.089844 30.640625 26.160156 C 30.710938 26.230469 30.867188 26.195312 30.972656 26.089844 C 31.238281 25.828125 31.097656 25.667969 30.761719 25.878906 Z M 30.761719 25.878906 "/>
<path style=" stroke:none;fill-rule:nonzero;fill:rgb(0%,0%,0%);fill-opacity:1;" d="M 23.117188 26.230469 C 23.167969 26.320312 23.292969 26.410156 23.398438 26.410156 C 23.484375 26.410156 23.554688 26.320312 23.554688 26.230469 C 23.554688 26.125 23.433594 26.054688 23.273438 26.054688 C 23.132812 26.054688 23.0625 26.125 23.117188 26.230469 Z M 23.117188 26.230469 "/>
<path style=" stroke:none;fill-rule:nonzero;fill:rgb(0%,0%,0%);fill-opacity:1;" d="M 29.621094 26.410156 C 29.566406 26.496094 29.636719 26.585938 29.777344 26.585938 C 29.9375 26.585938 30.058594 26.496094 30.058594 26.410156 C 30.058594 26.304688 29.988281 26.230469 29.902344 26.230469 C 29.796875 26.230469 29.671875 26.304688 29.621094 26.410156 Z M 29.621094 26.410156 "/>
<path style=" stroke:none;fill-rule:nonzero;fill:rgb(0%,0%,0%);fill-opacity:1;" d="M 24.082031 26.585938 C 24.082031 26.671875 24.207031 26.761719 24.347656 26.761719 C 24.488281 26.761719 24.609375 26.671875 24.609375 26.585938 C 24.609375 26.480469 24.488281 26.410156 24.347656 26.410156 C 24.207031 26.410156 24.082031 26.480469 24.082031 26.585938 Z M 24.082031 26.585938 "/>
<path style=" stroke:none;fill-rule:nonzero;fill:rgb(0%,0%,0%);fill-opacity:1;" d="M 28.476562 26.761719 C 28.476562 26.847656 28.601562 26.9375 28.742188 26.9375 C 28.882812 26.9375 29.003906 26.847656 29.003906 26.761719 C 29.003906 26.65625 28.882812 26.585938 28.742188 26.585938 C 28.601562 26.585938 28.476562 26.65625 28.476562 26.761719 Z M 28.476562 26.761719 "/>
<path style=" stroke:none;fill-rule:nonzero;fill:rgb(0%,0%,0%);fill-opacity:1;" d="M 25.277344 26.882812 C 25.402344 26.9375 25.558594 26.917969 25.613281 26.867188 C 25.683594 26.8125 25.578125 26.761719 25.382812 26.777344 C 25.191406 26.777344 25.136719 26.832031 25.277344 26.882812 Z M 25.277344 26.882812 "/>
<path style=" stroke:none;fill-rule:nonzero;fill:rgb(0%,0%,0%);fill-opacity:1;" d="M 26.28125 26.9375 C 26.226562 27.023438 26.332031 27.113281 26.527344 27.113281 C 26.738281 27.113281 26.894531 27.023438 26.894531 26.9375 C 26.894531 26.832031 26.789062 26.761719 26.648438 26.761719 C 26.507812 26.761719 26.332031 26.832031 26.28125 26.9375 Z M 26.28125 26.9375 "/>
<path style=" stroke:none;fill-rule:nonzero;fill:rgb(0%,0%,0%);fill-opacity:1;" d="M 27.421875 26.9375 C 27.421875 27.023438 27.546875 27.113281 27.6875 27.113281 C 27.828125 27.113281 27.949219 27.023438 27.949219 26.9375 C 27.949219 26.832031 27.828125 26.761719 27.6875 26.761719 C 27.546875 26.761719 27.421875 26.832031 27.421875 26.9375 Z M 27.421875 26.9375 "/>
<path style=" stroke:none;fill-rule:nonzero;fill:rgb(0%,0%,0%);fill-opacity:1;" d="M 9.40625 32.835938 L 9.40625 35.035156 L 11.425781 35.035156 L 11.425781 34.488281 C 11.425781 33.960938 11.410156 33.945312 10.792969 34.066406 L 10.144531 34.171875 L 10.230469 32.410156 L 10.320312 30.632812 L 9.40625 30.632812 Z M 9.40625 32.835938 "/>
<path style=" stroke:none;fill-rule:nonzero;fill:rgb(0%,0%,0%);fill-opacity:1;" d="M 11.917969 32.519531 C 12.007812 34.699219 12.164062 35.035156 13.183594 35.035156 C 14.203125 35.035156 14.363281 34.699219 14.449219 32.519531 L 14.539062 30.632812 L 13.589844 30.632812 L 13.675781 32.394531 L 13.765625 34.15625 L 12.605469 34.15625 L 12.691406 32.394531 L 12.78125 30.632812 L 11.832031 30.632812 Z M 11.917969 32.519531 "/>
<path style=" stroke:none;fill-rule:nonzero;fill:rgb(0%,0%,0%);fill-opacity:1;" d="M 15.242188 30.949219 C 15.011719 31.195312 14.941406 31.636719 14.941406 32.871094 C 14.941406 34.683594 15.152344 35.035156 16.207031 35.035156 C 17.085938 35.035156 17.402344 34.613281 17.402344 33.398438 L 17.402344 32.394531 L 16.789062 32.394531 C 16.277344 32.394531 16.171875 32.464844 16.171875 32.746094 C 16.171875 32.941406 16.296875 33.152344 16.4375 33.203125 C 16.578125 33.273438 16.699219 33.503906 16.699219 33.730469 C 16.699219 34.085938 16.613281 34.15625 16.171875 34.15625 L 15.644531 34.15625 L 15.644531 31.515625 L 16.171875 31.515625 C 16.523438 31.515625 16.699219 31.601562 16.699219 31.777344 C 16.699219 31.917969 16.859375 32.042969 17.050781 32.042969 C 17.507812 32.042969 17.527344 31.339844 17.085938 30.933594 C 16.648438 30.527344 15.59375 30.546875 15.242188 30.949219 Z M 15.242188 30.949219 "/>
<path style=" stroke:none;fill-rule:nonzero;fill:rgb(0%,0%,0%);fill-opacity:1;" d="M 18.054688 30.949219 C 17.824219 31.195312 17.753906 31.636719 17.753906 32.886719 C 17.753906 34.347656 17.789062 34.507812 18.140625 34.753906 C 18.722656 35.160156 19.566406 35.105469 20.003906 34.628906 C 20.304688 34.3125 20.390625 33.996094 20.390625 33.308594 L 20.390625 32.394531 L 19.777344 32.394531 C 19.285156 32.394531 19.160156 32.464844 19.160156 32.730469 C 19.160156 32.921875 19.25 33.132812 19.335938 33.1875 C 19.441406 33.238281 19.511719 33.484375 19.511719 33.730469 C 19.511719 34.066406 19.425781 34.15625 19.074219 34.15625 C 18.652344 34.15625 18.632812 34.121094 18.632812 32.835938 C 18.632812 31.550781 18.652344 31.515625 19.074219 31.515625 C 19.355469 31.515625 19.511719 31.621094 19.511719 31.777344 C 19.511719 32.128906 20.199219 32.128906 20.320312 31.777344 C 20.390625 31.636719 20.304688 31.320312 20.144531 31.074219 C 19.917969 30.722656 19.707031 30.632812 19.089844 30.632812 C 18.582031 30.632812 18.246094 30.738281 18.054688 30.949219 Z M 18.054688 30.949219 "/>
<path style=" stroke:none;fill-rule:nonzero;fill:rgb(0%,0%,0%);fill-opacity:1;" d="M 21.113281 31.285156 C 21.113281 31.65625 20.988281 32.535156 20.847656 33.238281 C 20.496094 34.894531 20.496094 35.035156 20.917969 35.035156 C 21.183594 35.035156 21.304688 34.875 21.394531 34.507812 C 21.464844 34.101562 21.585938 33.980469 21.886719 33.980469 C 22.203125 33.980469 22.324219 34.101562 22.414062 34.523438 C 22.5 34.945312 22.605469 35.035156 22.90625 35 C 23.34375 34.945312 23.34375 34.769531 22.957031 33.097656 C 22.816406 32.464844 22.695312 31.65625 22.675781 31.285156 L 22.675781 30.632812 L 21.113281 30.632812 Z M 22.132812 33.046875 C 22.148438 33.167969 22.027344 33.273438 21.867188 33.273438 C 21.675781 33.273438 21.621094 33.1875 21.691406 32.992188 C 21.746094 32.835938 21.796875 32.589844 21.816406 32.429688 C 21.816406 32.183594 21.851562 32.199219 21.972656 32.480469 C 22.0625 32.675781 22.132812 32.941406 22.132812 33.046875 Z M 22.132812 33.046875 "/>
<path style=" stroke:none;fill-rule:nonzero;fill:rgb(0%,0%,0%);fill-opacity:1;" d="M 23.855469 30.949219 C 23.625 31.195312 23.554688 31.636719 23.554688 32.871094 C 23.554688 34.683594 23.765625 35.035156 24.820312 35.035156 C 25.699219 35.035156 26.015625 34.613281 26.015625 33.398438 L 26.015625 32.394531 L 25.402344 32.394531 C 24.890625 32.394531 24.785156 32.464844 24.785156 32.746094 C 24.785156 32.941406 24.910156 33.152344 25.050781 33.203125 C 25.191406 33.273438 25.3125 33.503906 25.3125 33.730469 C 25.3125 34.085938 25.226562 34.15625 24.785156 34.15625 L 24.257812 34.15625 L 24.257812 31.515625 L 24.785156 31.515625 C 25.136719 31.515625 25.3125 31.601562 25.3125 31.777344 C 25.3125 31.917969 25.472656 32.042969 25.664062 32.042969 C 26.121094 32.042969 26.140625 31.339844 25.699219 30.933594 C 25.261719 30.527344 24.207031 30.546875 23.855469 30.949219 Z M 23.855469 30.949219 "/>
<path style=" stroke:none;fill-rule:nonzero;fill:rgb(0%,0%,0%);fill-opacity:1;" d="M 26.472656 32.78125 L 26.492188 34.945312 L 27.5625 35 L 28.652344 35.054688 L 28.652344 34.507812 C 28.652344 33.960938 28.652344 33.945312 27.949219 34.066406 C 27.28125 34.171875 27.246094 34.171875 27.246094 33.730469 C 27.246094 33.34375 27.316406 33.273438 27.773438 33.273438 C 28.214844 33.273438 28.300781 33.203125 28.300781 32.835938 C 28.300781 32.464844 28.214844 32.394531 27.773438 32.394531 C 27.335938 32.394531 27.246094 32.324219 27.246094 31.953125 C 27.246094 31.550781 27.316406 31.515625 27.949219 31.515625 C 28.582031 31.515625 28.652344 31.460938 28.652344 31.074219 C 28.652344 30.652344 28.601562 30.632812 27.5625 30.632812 L 26.457031 30.632812 Z M 26.472656 32.78125 "/>
<path style=" stroke:none;fill-rule:nonzero;fill:rgb(0%,0%,0%);fill-opacity:1;" d="M 30.164062 32.78125 L 30.183594 34.945312 L 31.027344 35 C 31.695312 35.054688 31.941406 34.980469 32.273438 34.664062 C 32.730469 34.226562 32.855469 33.328125 32.484375 32.957031 C 32.328125 32.800781 32.328125 32.695312 32.484375 32.535156 C 32.800781 32.21875 32.730469 31.25 32.378906 30.933594 C 32.152344 30.722656 31.746094 30.632812 31.097656 30.632812 L 30.148438 30.632812 Z M 31.78125 31.902344 C 31.695312 32.5 31.113281 32.554688 31.113281 31.972656 C 31.113281 31.621094 31.203125 31.515625 31.484375 31.515625 C 31.746094 31.515625 31.835938 31.601562 31.78125 31.902344 Z M 31.816406 33.714844 C 31.816406 34.03125 31.730469 34.15625 31.464844 34.15625 C 31.203125 34.15625 31.113281 34.03125 31.113281 33.714844 C 31.113281 33.398438 31.203125 33.273438 31.464844 33.273438 C 31.730469 33.273438 31.816406 33.398438 31.816406 33.714844 Z M 31.816406 33.714844 "/>
<path style=" stroke:none;fill-rule:nonzero;fill:rgb(0%,0%,0%);fill-opacity:1;" d="M 33.046875 32.445312 C 33.046875 34.121094 33.082031 34.296875 33.453125 34.648438 C 33.996094 35.160156 34.804688 35.160156 35.296875 34.628906 C 35.648438 34.261719 35.683594 34.03125 35.683594 32.429688 L 35.683594 30.632812 L 34.683594 30.632812 L 34.769531 32.394531 L 34.859375 34.15625 L 33.875 34.15625 L 33.960938 32.394531 L 34.050781 30.632812 L 33.046875 30.632812 Z M 33.046875 32.445312 "/>
<path style=" stroke:none;fill-rule:nonzero;fill:rgb(0%,0%,0%);fill-opacity:1;" d="M 36.140625 32.78125 L 36.175781 34.945312 L 37.089844 35 C 38.496094 35.089844 38.671875 34.839844 38.671875 32.746094 C 38.671875 31.671875 38.601562 30.984375 38.460938 30.84375 C 38.339844 30.722656 37.777344 30.632812 37.195312 30.632812 L 36.125 30.632812 Z M 37.96875 32.835938 C 37.96875 34.121094 37.953125 34.15625 37.53125 34.15625 C 37.109375 34.15625 37.089844 34.121094 37.089844 32.835938 C 37.089844 31.550781 37.109375 31.515625 37.53125 31.515625 C 37.953125 31.515625 37.96875 31.550781 37.96875 32.835938 Z M 37.96875 32.835938 "/>
<path style=" stroke:none;fill-rule:nonzero;fill:rgb(0%,0%,0%);fill-opacity:1;" d="M 39.128906 32.78125 L 39.164062 34.945312 L 40.078125 35 C 40.835938 35.054688 41.082031 34.980469 41.414062 34.664062 C 41.785156 34.3125 41.835938 34.121094 41.835938 32.835938 C 41.835938 30.898438 41.644531 30.632812 40.203125 30.632812 L 39.113281 30.632812 Z M 40.957031 32.835938 C 40.957031 34.121094 40.941406 34.15625 40.519531 34.15625 C 40.097656 34.15625 40.078125 34.121094 40.078125 32.835938 C 40.078125 31.550781 40.097656 31.515625 40.519531 31.515625 C 40.941406 31.515625 40.957031 31.550781 40.957031 32.835938 Z M 40.957031 32.835938 "/>
<path style=" stroke:none;fill-rule:nonzero;fill:rgb(0%,0%,0%);fill-opacity:1;" d="M 42.011719 30.878906 C 42.011719 31.003906 42.207031 31.65625 42.453125 32.304688 C 42.804688 33.238281 42.875 33.660156 42.785156 34.277344 C 42.679688 35.054688 42.679688 35.070312 43.171875 35 C 43.664062 34.945312 43.683594 34.910156 43.628906 34.121094 C 43.59375 33.554688 43.71875 32.957031 44.035156 32.199219 C 44.578125 30.84375 44.597656 30.597656 44.085938 30.667969 C 43.824219 30.703125 43.648438 30.898438 43.523438 31.285156 C 43.3125 32.023438 43.136719 32.023438 42.890625 31.25 C 42.75 30.828125 42.574219 30.632812 42.347656 30.632812 C 42.171875 30.632812 42.011719 30.738281 42.011719 30.878906 Z M 42.011719 30.878906 "/>
<path style=" stroke:none;fill-rule:nonzero;fill:rgb(0%,0%,0%);fill-opacity:1;" d="M 12.921875 37.78125 C 12.992188 37.976562 13.097656 38.695312 13.148438 39.382812 C 13.253906 41.039062 13.625 41.125 13.765625 39.558594 C 13.835938 38.960938 13.921875 38.257812 13.992188 37.976562 C 14.0625 37.695312 14.027344 37.5 13.921875 37.5 C 13.816406 37.5 13.675781 37.765625 13.605469 38.0625 L 13.464844 38.644531 L 13.378906 38.132812 C 13.324219 37.851562 13.167969 37.589844 13.027344 37.535156 C 12.851562 37.480469 12.816406 37.535156 12.921875 37.78125 Z M 12.921875 37.78125 "/>
<path style=" stroke:none;fill-rule:nonzero;fill:rgb(0%,0%,0%);fill-opacity:1;" d="M 14.765625 37.835938 C 14.554688 38.257812 14.539062 40.125 14.75 40.457031 C 14.820312 40.597656 15.082031 40.667969 15.3125 40.632812 C 15.699219 40.582031 15.734375 40.492188 15.785156 39.4375 C 15.820312 38.820312 15.785156 38.117188 15.734375 37.90625 C 15.609375 37.410156 15.03125 37.359375 14.765625 37.835938 Z M 15.46875 39.085938 C 15.46875 39.789062 15.398438 40.316406 15.292969 40.316406 C 15.1875 40.316406 15.117188 39.789062 15.117188 39.085938 C 15.117188 38.378906 15.1875 37.851562 15.292969 37.851562 C 15.398438 37.851562 15.46875 38.378906 15.46875 39.085938 Z M 15.46875 39.085938 "/>
<path style=" stroke:none;fill-rule:nonzero;fill:rgb(0%,0%,0%);fill-opacity:1;" d="M 16.558594 39.03125 C 16.613281 40.546875 16.628906 40.582031 17.035156 40.582031 C 17.386719 40.582031 17.507812 40.457031 17.613281 40 C 17.824219 39.191406 17.71875 37.640625 17.457031 37.535156 C 17.28125 37.480469 17.226562 37.835938 17.226562 38.890625 C 17.226562 39.71875 17.15625 40.316406 17.050781 40.316406 C 16.945312 40.316406 16.875 39.734375 16.875 38.910156 C 16.875 38.046875 16.804688 37.5 16.699219 37.5 C 16.578125 37.5 16.523438 38.0625 16.558594 39.03125 Z M 16.558594 39.03125 "/>
<path style=" stroke:none;fill-rule:nonzero;fill:rgb(0%,0%,0%);fill-opacity:1;" d="M 18.28125 39.085938 C 18.28125 40.371094 18.335938 40.667969 18.546875 40.667969 C 18.738281 40.667969 18.808594 40.476562 18.808594 39.964844 C 18.808594 39.578125 18.898438 39.261719 18.984375 39.261719 C 19.089844 39.261719 19.160156 39.578125 19.160156 39.964844 C 19.160156 40.351562 19.230469 40.667969 19.335938 40.667969 C 19.546875 40.667969 19.53125 38.011719 19.300781 37.710938 C 19.195312 37.605469 18.933594 37.5 18.703125 37.5 C 18.300781 37.5 18.28125 37.535156 18.28125 39.085938 Z M 19.160156 38.273438 C 19.160156 38.519531 19.089844 38.769531 18.984375 38.820312 C 18.878906 38.890625 18.808594 38.695312 18.808594 38.398438 C 18.808594 38.097656 18.898438 37.851562 18.984375 37.851562 C 19.089844 37.851562 19.160156 38.046875 19.160156 38.273438 Z M 19.160156 38.273438 "/>
<path style=" stroke:none;fill-rule:nonzero;fill:rgb(0%,0%,0%);fill-opacity:1;" d="M 21.183594 37.675781 C 21.128906 37.765625 21.199219 37.851562 21.339844 37.851562 C 21.570312 37.851562 21.621094 38.097656 21.621094 39.261719 C 21.621094 40.089844 21.691406 40.667969 21.796875 40.667969 C 21.902344 40.667969 21.972656 40.089844 21.972656 39.261719 C 21.972656 38.433594 22.042969 37.851562 22.148438 37.851562 C 22.253906 37.851562 22.324219 37.765625 22.324219 37.675781 C 22.324219 37.570312 22.097656 37.5 21.816406 37.5 C 21.515625 37.5 21.234375 37.570312 21.183594 37.675781 Z M 21.183594 37.675781 "/>
<path style=" stroke:none;fill-rule:nonzero;fill:rgb(0%,0%,0%);fill-opacity:1;" d="M 22.851562 39.085938 C 22.851562 40.371094 22.90625 40.667969 23.117188 40.667969 C 23.308594 40.667969 23.378906 40.476562 23.378906 39.964844 C 23.378906 39.578125 23.46875 39.261719 23.554688 39.261719 C 23.660156 39.261719 23.730469 39.578125 23.730469 39.964844 C 23.730469 40.492188 23.800781 40.667969 24.011719 40.667969 C 24.152344 40.667969 24.222656 40.582031 24.171875 40.492188 C 24.101562 40.386719 24.046875 39.769531 24.046875 39.121094 C 24.046875 37.816406 23.890625 37.5 23.273438 37.5 C 22.871094 37.5 22.851562 37.535156 22.851562 39.085938 Z M 23.730469 38.273438 C 23.730469 38.519531 23.660156 38.769531 23.554688 38.820312 C 23.449219 38.890625 23.378906 38.695312 23.378906 38.398438 C 23.378906 38.097656 23.46875 37.851562 23.554688 37.851562 C 23.660156 37.851562 23.730469 38.046875 23.730469 38.273438 Z M 23.730469 38.273438 "/>
<path style=" stroke:none;fill-rule:nonzero;fill:rgb(0%,0%,0%);fill-opacity:1;" d="M 24.996094 37.710938 C 24.734375 37.976562 24.699219 40.667969 24.960938 40.667969 C 25.066406 40.667969 25.136719 40.476562 25.136719 40.230469 C 25.136719 39.980469 25.226562 39.789062 25.3125 39.789062 C 25.417969 39.789062 25.488281 39.980469 25.488281 40.230469 C 25.488281 40.511719 25.59375 40.667969 25.753906 40.667969 C 25.964844 40.667969 26.015625 40.40625 26.015625 39.417969 C 26.015625 37.746094 25.628906 37.078125 24.996094 37.710938 Z M 25.488281 38.644531 C 25.488281 39.085938 25.417969 39.4375 25.3125 39.4375 C 25.226562 39.4375 25.136719 39.085938 25.136719 38.644531 C 25.136719 38.203125 25.226562 37.851562 25.3125 37.851562 C 25.417969 37.851562 25.488281 38.203125 25.488281 38.644531 Z M 25.488281 38.644531 "/>
<path style=" stroke:none;fill-rule:nonzero;fill:rgb(0%,0%,0%);fill-opacity:1;" d="M 26.597656 38.152344 C 26.648438 38.519531 26.753906 39.242188 26.824219 39.734375 C 26.894531 40.316406 27.019531 40.667969 27.160156 40.667969 C 27.421875 40.667969 27.546875 40.246094 27.703125 38.679688 C 27.863281 37.164062 27.546875 37.09375 27.300781 38.589844 L 27.125 39.699219 L 27.089844 38.875 C 27.070312 37.941406 26.929688 37.5 26.683594 37.5 C 26.5625 37.5 26.542969 37.765625 26.597656 38.152344 Z M 26.597656 38.152344 "/>
<path style=" stroke:none;fill-rule:nonzero;fill:rgb(0%,0%,0%);fill-opacity:1;" d="M 28.476562 39.085938 C 28.476562 40.652344 28.476562 40.667969 28.917969 40.667969 C 29.164062 40.667969 29.355469 40.582031 29.355469 40.492188 C 29.355469 40.386719 29.234375 40.316406 29.09375 40.316406 C 28.722656 40.316406 28.757812 39.4375 29.144531 39.15625 C 29.425781 38.925781 29.425781 38.925781 29.144531 38.910156 C 28.742188 38.910156 28.6875 37.851562 29.09375 37.851562 C 29.234375 37.851562 29.355469 37.765625 29.355469 37.675781 C 29.355469 37.570312 29.164062 37.5 28.917969 37.5 C 28.476562 37.5 28.476562 37.519531 28.476562 39.085938 Z M 28.476562 39.085938 "/>
<path style=" stroke:none;fill-rule:nonzero;fill:rgb(0%,0%,0%);fill-opacity:1;" d="M 29.882812 39.066406 C 29.882812 40.652344 29.882812 40.667969 30.324219 40.667969 C 30.570312 40.667969 30.761719 40.582031 30.761719 40.492188 C 30.761719 40.386719 30.691406 40.316406 30.585938 40.316406 C 30.5 40.316406 30.410156 39.699219 30.375 38.960938 C 30.339844 38.082031 30.253906 37.589844 30.113281 37.535156 C 29.9375 37.480469 29.882812 37.871094 29.882812 39.066406 Z M 29.882812 39.066406 "/>
<path style=" stroke:none;fill-rule:nonzero;fill:rgb(0%,0%,0%);fill-opacity:1;" d="M 32.519531 39.066406 L 32.519531 40.667969 L 33.046875 40.667969 C 33.699219 40.667969 33.804688 40.316406 33.628906 38.730469 C 33.488281 37.660156 33.453125 37.589844 33.011719 37.535156 L 32.519531 37.480469 Z M 33.222656 38.378906 C 33.222656 38.660156 33.152344 38.910156 33.046875 38.910156 C 32.960938 38.910156 32.871094 38.660156 32.871094 38.378906 C 32.871094 38.082031 32.960938 37.851562 33.046875 37.851562 C 33.152344 37.851562 33.222656 38.082031 33.222656 38.378906 Z M 33.363281 39.734375 C 33.292969 40.421875 32.871094 40.476562 32.871094 39.804688 C 32.871094 39.4375 32.960938 39.261719 33.152344 39.261719 C 33.347656 39.261719 33.398438 39.402344 33.363281 39.734375 Z M 33.363281 39.734375 "/>
<path style=" stroke:none;fill-rule:nonzero;fill:rgb(0%,0%,0%);fill-opacity:1;" d="M 34.277344 38.785156 C 34.277344 39.523438 34.332031 40.230469 34.382812 40.386719 C 34.523438 40.757812 35.261719 40.757812 35.402344 40.386719 C 35.578125 39.929688 35.527344 37.5 35.332031 37.5 C 35.226562 37.5 35.15625 37.992188 35.15625 38.625 C 35.15625 40.371094 34.910156 40.632812 34.804688 39.015625 C 34.753906 38.117188 34.628906 37.589844 34.507812 37.535156 C 34.332031 37.480469 34.277344 37.816406 34.277344 38.785156 Z M 34.277344 38.785156 "/>
<path style=" stroke:none;fill-rule:nonzero;fill:rgb(0%,0%,0%);fill-opacity:1;" d="M 36.210938 39.101562 L 36.210938 40.6875 L 36.6875 40.632812 C 37.074219 40.597656 37.195312 40.457031 37.300781 39.964844 C 37.476562 39.207031 37.300781 37.816406 37.039062 37.640625 C 36.914062 37.570312 36.6875 37.5 36.527344 37.5 C 36.246094 37.5 36.210938 37.695312 36.210938 39.101562 Z M 36.914062 39.085938 C 36.914062 39.789062 36.84375 40.316406 36.738281 40.316406 C 36.632812 40.316406 36.5625 39.789062 36.5625 39.085938 C 36.5625 38.378906 36.632812 37.851562 36.738281 37.851562 C 36.84375 37.851562 36.914062 38.378906 36.914062 39.085938 Z M 36.914062 39.085938 "/>
<path style=" stroke:none;fill-rule:nonzero;fill:rgb(0%,0%,0%);fill-opacity:1;" d="M 37.96875 39.085938 L 37.96875 40.667969 L 38.480469 40.667969 C 39.09375 40.667969 39.199219 40.441406 39.199219 39.15625 C 39.199219 37.957031 38.972656 37.5 38.410156 37.5 C 37.96875 37.5 37.96875 37.519531 37.96875 39.085938 Z M 38.742188 38.132812 C 38.988281 38.804688 38.8125 40.316406 38.480469 40.316406 C 38.390625 40.316406 38.320312 39.753906 38.320312 39.085938 C 38.320312 37.921875 38.496094 37.5 38.742188 38.132812 Z M 38.742188 38.132812 "/>
<path style=" stroke:none;fill-rule:nonzero;fill:rgb(0%,0%,0%);fill-opacity:1;" d="M 39.796875 37.976562 C 39.867188 38.257812 39.957031 38.960938 40.027344 39.558594 C 40.167969 41.125 40.535156 41.039062 40.640625 39.382812 C 40.695312 38.695312 40.800781 37.976562 40.871094 37.78125 C 40.976562 37.535156 40.941406 37.480469 40.765625 37.535156 C 40.625 37.589844 40.464844 37.851562 40.414062 38.132812 L 40.324219 38.644531 L 40.183594 38.0625 C 40.113281 37.765625 39.972656 37.5 39.867188 37.5 C 39.761719 37.5 39.726562 37.695312 39.796875 37.976562 Z M 39.796875 37.976562 "/>
</g>
</svg>
